# 3ds Max Wavefront OBJ Exporter v0.97b - (c)2007 guruware
# File Created: 07.09.2019 07:47:55

mtllib rock-2.mtl

#
# object Cube_001
#

v  -0.1359 -0.0181 0.3326
v  -0.2657 -0.0201 0.2750
v  -0.2919 -0.0678 0.1324
v  -0.1594 -0.0705 0.1707
v  -0.1712 0.4141 0.2012
v  -0.2972 0.3990 0.1863
v  -0.2576 0.3659 0.3187
v  -0.1542 0.3575 0.3826
v  0.2819 0.3326 0.2827
v  0.2042 0.4193 0.2599
v  0.1122 0.3216 0.4362
v  0.2365 0.2110 0.4110
v  -0.2386 0.2316 0.4012
v  -0.3237 0.2753 0.3510
v  -0.4343 0.2854 -0.2016
v  -0.3425 0.3877 -0.2066
v  -0.1722 0.3676 -0.4269
v  -0.2462 0.2884 -0.4125
v  -0.0812 -0.0188 -0.2023
v  -0.1749 -0.0356 -0.2408
v  -0.2686 0.0232 -0.2926
v  -0.1897 0.0464 -0.3236
v  -0.0909 -0.0684 -0.1719
v  -0.1203 -0.0853 -0.0108
v  -0.2765 -0.0791 -0.0341
v  -0.2178 -0.0683 -0.1548
v  0.1213 -0.0972 -0.0320
v  -0.0040 -0.0974 -0.0174
v  0.0436 -0.0587 -0.1534
v  0.1384 -0.0885 -0.1895
v  0.0615 -0.0441 0.3432
v  -0.0390 -0.0357 0.3541
v  -0.0268 -0.0854 0.1717
v  0.0969 -0.0928 0.1536
v  -0.0500 0.4236 0.1818
v  -0.0871 0.3589 0.4985
v  -0.0165 0.3435 0.5175
v  0.0866 0.4269 0.2489
v  0.2025 0.4152 -0.2065
v  0.0159 0.3975 -0.2865
v  0.0116 0.4209 -0.0731
v  0.1545 0.4211 -0.0838
v  -0.1524 0.4184 -0.0032
v  -0.1375 0.4017 -0.2563
v  -0.2973 0.4058 0.0028
v  0.3201 0.1964 0.2906
v  0.2918 0.1489 0.3981
v  0.2563 0.0571 0.3783
v  0.3404 0.0591 0.2152
v  0.3201 0.1869 -0.1987
v  0.2968 0.2156 0.0487
v  0.3205 0.0751 -0.0184
v  0.3344 0.0397 -0.2467
v  0.3112 0.3789 -0.1713
v  0.2464 0.3882 0.0138
v  0.2654 0.3327 0.0569
v  0.3596 0.2794 -0.2037
v  -0.2636 0.1255 0.3716
v  -0.4163 0.1408 0.2460
v  -0.3969 0.0343 0.2221
v  -0.1785 0.0594 0.3881
v  0.1685 0.1370 0.4174
v  0.0657 0.1410 0.3934
v  -0.0341 0.0488 0.4337
v  0.1248 0.0478 0.4032
v  -0.0169 0.2031 0.4617
v  0.1324 0.2153 0.4064
v  -0.2995 0.1500 -0.3266
v  -0.3401 -0.0245 -0.2328
v  -0.4445 0.0995 -0.2088
v  -0.4159 0.1441 0.1323
v  -0.4165 0.1339 -0.0184
v  -0.3911 -0.0479 -0.0736
v  -0.3916 0.0104 0.1405
v  -0.3746 0.3328 0.0131
v  -0.3623 0.3167 0.2152
v  -0.1959 0.1549 -0.4041
v  -0.0665 0.2855 -0.4947
v  0.1405 0.1399 -0.4312
v  -0.0505 0.1049 -0.4427
v  0.0387 0.2614 -0.5279
v  0.2026 0.2648 -0.4405
v  0.1185 -0.0445 -0.2959
v  0.0170 -0.0226 -0.2258
v  -0.0456 0.0190 -0.3555
v  0.1295 0.0357 -0.3453
v  0.2266 -0.0363 -0.3106
v  0.2632 -0.0593 -0.1838
v  0.2641 -0.0491 -0.0426
v  0.2548 -0.0394 0.1355
v  0.1860 -0.0237 0.3074
v  0.1946 0.3495 -0.3745
v  0.3293 0.3375 -0.2949
v  0.0266 0.3509 -0.4567
v  -0.0442 0.3572 -0.5190
v  0.2731 0.0545 -0.3710
v  0.3032 0.1676 -0.3520
v  0.3500 0.2515 -0.3405
# 98 vertices

vn -0.2584 -0.7975 0.5451
vn -0.3495 -0.7771 0.5234
vn -0.3025 -0.9320 0.1995
vn -0.1105 -0.9738 0.1985
vn -0.1167 0.9821 0.1479
vn -0.4539 0.8731 0.1776
vn -0.3958 0.7604 0.5149
vn -0.3528 0.7087 0.6109
vn 0.8228 0.4808 0.3029
vn 0.5033 0.8215 0.2681
vn 0.3845 0.4345 0.8145
vn 0.4538 0.2397 0.8582
vn -0.4358 -0.0821 0.8963
vn -0.6895 0.3023 0.6582
vn -0.9092 0.3233 -0.2622
vn -0.5019 0.8357 -0.2231
vn -0.3963 0.7012 -0.5927
vn -0.6149 0.1247 -0.7787
vn -0.0110 -0.8574 -0.5145
vn 0.0883 -0.7838 -0.6147
vn -0.2636 -0.5910 -0.7624
vn -0.1987 -0.6792 -0.7065
vn 0.0321 -0.9199 -0.3907
vn -0.0475 -0.9983 -0.0340
vn -0.2091 -0.9777 -0.0180
vn -0.0642 -0.9511 -0.3019
vn 0.1005 -0.9946 -0.0248
vn -0.0629 -0.9956 -0.0687
vn -0.1654 -0.9365 -0.3092
vn -0.0232 -0.9791 -0.2021
vn 0.1254 -0.8472 0.5163
vn -0.0976 -0.8321 0.5459
vn -0.0829 -0.9830 0.1638
vn 0.1415 -0.9784 0.1504
vn -0.0601 0.9943 0.0878
vn -0.2427 0.5402 0.8058
vn 0.1621 0.3715 0.9142
vn 0.1050 0.9760 0.1904
vn 0.1853 0.9695 -0.1606
vn 0.0408 0.9814 -0.1877
vn -0.0243 0.9982 -0.0548
vn 0.1117 0.9936 -0.0183
vn -0.0645 0.9975 -0.0296
vn -0.0414 0.9904 -0.1314
vn -0.4111 0.9113 0.0190
vn 0.9580 0.1638 0.2352
vn 0.6806 -0.0183 0.7324
vn 0.5461 -0.4967 0.6746
vn 0.9333 -0.3313 0.1386
vn 0.9952 -0.0939 0.0256
vn 0.9904 0.1335 0.0350
vn 0.9841 -0.1765 0.0184
vn 0.9359 -0.3048 -0.1767
vn 0.6699 0.7423 0.0131
vn 0.5967 0.7969 0.0939
vn 0.9330 0.3501 0.0836
vn 0.9931 0.0820 0.0832
vn -0.4701 -0.2717 0.8397
vn -0.9063 -0.0483 0.4199
vn -0.7737 -0.5055 0.3818
vn -0.3337 -0.2076 0.9195
vn 0.1111 -0.1076 0.9879
vn 0.0174 -0.0965 0.9951
vn -0.1012 -0.2054 0.9734
vn 0.1494 -0.3836 0.9113
vn -0.0900 -0.3713 0.9241
vn 0.1805 -0.2088 0.9611
vn -0.5649 -0.2337 -0.7914
vn -0.5067 -0.7035 -0.4983
vn -0.9166 -0.1914 -0.3510
vn -0.9967 0.0571 0.0568
vn -0.9971 -0.0322 0.0682
vn -0.7092 -0.7039 -0.0376
vn -0.8178 -0.5584 0.1392
vn -0.8702 0.4851 0.0857
vn -0.8455 0.4951 0.2002
vn -0.4142 -0.3815 -0.8264
vn -0.2999 -0.0439 -0.9529
vn 0.2746 -0.4396 -0.8552
vn -0.1191 -0.5338 -0.8371
vn 0.1746 -0.0036 -0.9846
vn 0.4670 0.1523 -0.8710
vn -0.1095 -0.8472 -0.5198
vn -0.1808 -0.8741 -0.4509
vn -0.1362 -0.8069 -0.5747
vn 0.0273 -0.6129 -0.7896
vn 0.2782 -0.7664 -0.5790
vn 0.5681 -0.8159 -0.1077
vn 0.6285 -0.7766 0.0433
vn 0.5813 -0.8049 0.1192
vn 0.3782 -0.8253 0.4193
vn 0.3209 0.7821 -0.5341
vn 0.6776 0.6467 -0.3501
vn 0.2015 0.8034 -0.5603
vn -0.0692 0.6273 -0.7756
vn 0.5395 -0.4075 -0.7368
vn 0.7572 -0.2571 -0.6005
vn 0.8760 0.0159 -0.4820
# 98 vertex normals

vt 0.0583 0.5699 0.0000
vt 0.0826 0.5067 0.0000
vt 0.1529 0.4987 0.0000
vt 0.1376 0.5634 0.0000
vt 0.1550 0.3441 0.0000
vt 0.2063 0.3782 0.0000
vt 0.1556 0.4023 0.0000
vt 0.0998 0.3877 0.0000
vt 0.8962 0.2829 0.0000
vt 0.8545 0.3493 0.0000
vt 0.7950 0.2490 0.0000
vt 0.8707 0.1749 0.0000
vt 0.9492 0.5877 0.0000
vt 0.9441 0.6946 0.0000
vt 0.9057 0.6826 0.0000
vt 0.9167 0.6045 0.0000
vt 0.3368 0.0820 0.0000
vt 0.3692 0.0008 0.0000
vt 0.4892 0.0000 0.0000
vt 0.4607 0.0635 0.0000
vt 0.5127 0.3106 0.0000
vt 0.4816 0.3231 0.0000
vt 0.4473 0.2762 0.0000
vt 0.4857 0.2550 0.0000
vt 0.2768 0.5835 0.0000
vt 0.2154 0.5785 0.0000
vt 0.2237 0.5024 0.0000
vt 0.2701 0.5239 0.0000
vt 0.2265 0.6947 0.0000
vt 0.2208 0.6358 0.0000
vt 0.2665 0.6460 0.0000
vt 0.2885 0.6956 0.0000
vt 0.0600 0.6690 0.0000
vt 0.0537 0.6200 0.0000
vt 0.1407 0.6292 0.0000
vt 0.1496 0.6887 0.0000
vt 0.1155 0.2999 0.0000
vt 0.0420 0.4025 0.0000
vt 0.0114 0.3834 0.0000
vt 0.0460 0.2771 0.0000
vt 0.1339 0.0947 0.0000
vt 0.2261 0.1276 0.0000
vt 0.1657 0.1994 0.0000
vt 0.1162 0.1497 0.0000
vt 0.2062 0.2743 0.0000
vt 0.2737 0.1876 0.0000
vt 0.3356 0.2678 0.0000
vt 0.2584 0.3215 0.0000
vt 0.5205 0.6847 0.0000
vt 0.4775 0.7263 0.0000
vt 0.4046 0.7132 0.0000
vt 0.4229 0.6541 0.0000
vt 0.5294 0.4791 0.0000
vt 0.5396 0.5807 0.0000
vt 0.4398 0.5539 0.0000
vt 0.4227 0.4592 0.0000
vt 0.6723 0.7875 0.0000
vt 0.6838 0.7120 0.0000
vt 0.7317 0.7072 0.0000
vt 0.7441 0.8145 0.0000
vt 0.0066 0.4823 0.0000
vt 0.0544 0.4025 0.0000
vt 0.0909 0.4319 0.0000
vt 0.0163 0.5363 0.0000
vt 0.8552 0.1259 0.0000
vt 0.8187 0.1375 0.0000
vt 0.7861 0.0702 0.0000
vt 0.8571 0.0701 0.0000
vt 0.6940 0.2682 0.0000
vt 0.7587 0.1680 0.0000
vt 0.8291 0.1826 0.0000
vt 0.7208 0.2512 0.0000
vt 0.4310 0.1768 0.0000
vt 0.4081 0.3181 0.0000
vt 0.3485 0.2255 0.0000
vt 0.8217 0.4944 0.0000
vt 0.7589 0.4881 0.0000
vt 0.7478 0.3611 0.0000
vt 0.8347 0.4016 0.0000
vt 0.8441 0.7006 0.0000
vt 0.7667 0.7072 0.0000
vt 0.7665 0.6400 0.0000
vt 0.8534 0.6288 0.0000
vt 0.4911 0.1663 0.0000
vt 0.5550 0.0575 0.0000
vt 0.6424 0.1700 0.0000
vt 0.5654 0.2000 0.0000
vt 0.6089 0.0722 0.0000
vt 0.6612 0.0716 0.0000
vt 0.6197 0.3211 0.0000
vt 0.5600 0.3103 0.0000
vt 0.5564 0.2715 0.0000
vt 0.6283 0.2559 0.0000
vt 0.9071 0.1336 0.0000
vt 0.9344 0.1876 0.0000
vt 0.6173 0.6784 0.0000
vt 0.6226 0.5818 0.0000
vt 0.6629 0.5621 0.0000
vt 0.6723 0.6611 0.0000
vt 0.8696 0.4909 0.0000
vt 0.9396 0.5063 0.0000
vt 0.7441 0.8212 0.0000
vt 0.7521 0.7072 0.0000
vt 0.7914 0.7117 0.0000
vt 0.7916 0.8662 0.0000
vt 0.9999 0.7068 0.0000
vt 1.0000 0.6065 0.0000
vt 0.6723 0.5967 0.0000
vt 0.6778 0.4598 0.0000
vt 0.6749 0.6876 0.0000
vt 0.3845 0.7263 0.0000
vt 0.3877 0.8015 0.0000
vt 0.3368 0.8336 0.0000
vt 0.3369 0.7859 0.0000
vt 0.4481 0.3543 0.0000
vt 0.5062 0.3510 0.0000
vt 0.5595 0.3420 0.0000
vt 0.6100 0.3611 0.0000
vt 0.3209 0.6737 0.0000
vt 0.3247 0.7229 0.0000
vt 0.2786 0.7492 0.0000
vt 0.2184 0.7526 0.0000
vt 0.1432 0.7525 0.0000
vt 0.0693 0.7227 0.0000
vt 0.8083 0.3611 0.0000
vt 0.0562 0.1459 0.0000
vt 0.0000 0.2413 0.0000
vt 0.0856 0.0653 0.0000
vt 0.1879 0.0352 0.0000
vt 0.1163 0.0148 0.0000
vt 0.2730 0.0641 0.0000
vt 0.3165 0.0684 0.0000
vt 0.3368 0.1404 0.0000
vt 0.3368 0.6749 0.0000
vt 0.3401 0.6102 0.0000
vt 0.3400 0.5363 0.0000
vt 0.3368 0.4768 0.0000
vt 0.4295 0.4003 0.0000
vt 0.3532 0.4197 0.0000
vt 0.5177 0.4127 0.0000
vt 0.6042 0.4822 0.0000
vt 0.5865 0.4235 0.0000
vt 0.6465 0.4411 0.0000
vt 0.6710 0.4914 0.0000
vt 0.0000 0.6084 0.0000
vt 0.6941 0.1437 0.0000
vt 0.7365 0.0923 0.0000
vt 0.0123 0.6830 0.0000
vt 0.0198 0.7426 0.0000
vt 0.9139 0.0770 0.0000
vt 0.2322 0.4405 0.0000
vt 0.2912 0.4545 0.0000
vt 0.6853 0.3887 0.0000
vt 0.1301 0.4362 0.0000
vt 0.8671 0.4173 0.0000
vt 0.5639 0.0001 0.0000
vt 0.5821 0.0074 0.0000
vt 0.2079 0.0000 0.0000
vt 0.2933 0.0252 0.0000
vt 0.5795 0.3653 0.0000
vt 0.6396 0.3929 0.0000
vt 0.4772 0.3611 0.0000
vt 0.6940 0.1502 0.0000
vt 0.6938 0.2371 0.0000
vt 0.6686 0.3119 0.0000
# 165 texture coords

o Cube_001
g Cube_001
usemtl rock_2_Material_002
s 1
f 1/1/1 2/2/2 3/3/3 4/4/4 
f 5/5/5 6/6/6 7/7/7 8/8/8 
f 9/9/9 10/10/10 11/11/11 12/12/12 
f 13/13/13 8/14/8 7/15/7 14/16/14 
f 15/17/15 16/18/16 17/19/17 18/20/18 
f 19/21/19 20/22/20 21/23/21 22/24/22 
f 23/25/23 24/26/24 25/27/25 26/28/26 
f 27/29/27 28/30/28 29/31/29 30/32/30 
f 31/33/31 32/34/32 33/35/33 34/36/34 
f 35/37/35 36/38/36 37/39/37 38/40/38 
f 39/41/39 40/42/40 41/43/41 42/44/42 
f 43/45/43 44/46/44 16/47/16 45/48/45 
f 46/49/46 47/50/47 48/51/48 49/52/49 
f 50/53/50 51/54/51 52/55/52 53/56/53 
f 54/57/54 55/58/55 56/59/56 57/60/57 
f 58/61/58 59/62/59 60/63/60 61/64/61 
f 62/65/62 63/66/63 64/67/64 65/68/65 
f 36/69/36 66/70/66 67/71/67 37/72/37 
f 68/73/68 21/23/21 69/74/69 70/75/70 
f 71/76/71 72/77/72 73/78/73 74/79/74 
f 6/80/6 45/81/45 75/82/75 76/83/76 
f 77/84/77 68/73/68 18/20/18 78/85/78 
f 79/86/79 80/87/80 81/88/81 82/89/82 
f 83/90/83 84/91/84 85/92/85 86/93/86 
f 25/27/25 24/26/24 4/4/4 3/3/3 
f 28/30/28 33/35/33 4/4/4 24/26/24 
f 4/4/4 33/35/33 32/34/32 1/1/1 
f 5/5/5 8/8/8 36/38/36 35/37/35 
f 41/43/41 43/45/43 5/5/5 35/37/35 
f 5/5/5 43/45/43 45/48/45 6/6/6 
f 47/94/47 46/95/46 9/9/9 12/12/12 
f 9/96/9 46/49/46 51/54/51 56/97/56 
f 9/96/9 56/97/56 55/98/55 10/99/10 
f 13/13/13 14/16/14 59/100/59 58/101/58 
f 66/102/66 13/103/13 58/104/58 63/105/63 
f 36/106/36 8/14/8 13/13/13 66/107/66 
f 70/75/70 15/17/15 18/20/18 68/73/68 
f 75/82/75 15/108/15 70/109/70 72/77/72 
f 75/82/75 45/81/45 16/110/16 15/108/15 
f 77/84/77 22/24/22 21/23/21 68/73/68 
f 22/24/22 77/84/77 80/87/80 85/92/85 
f 22/111/22 85/112/85 84/113/84 19/114/19 
f 26/115/26 20/22/20 19/21/19 23/116/23 
f 23/116/23 19/21/19 84/91/84 29/117/29 
f 24/26/24 23/25/23 29/31/29 28/30/28 
f 30/118/30 29/117/29 84/91/84 83/90/83 
f 30/32/30 83/119/83 87/120/87 88/121/88 
f 30/32/30 88/121/88 89/122/89 27/29/27 
f 27/29/27 34/36/34 33/35/33 28/30/28 
f 34/36/34 27/29/27 89/122/89 90/123/90 
f 34/36/34 90/123/90 91/124/91 31/33/31 
f 10/10/10 38/125/38 37/72/37 11/11/11 
f 55/126/55 42/44/42 38/40/38 10/127/10 
f 42/44/42 41/43/41 35/37/35 38/40/38 
f 39/41/39 42/44/42 55/126/55 54/128/54 
f 92/129/92 39/41/39 54/128/54 93/130/93 
f 94/131/94 40/42/40 39/41/39 92/129/92 
f 40/42/40 44/46/44 43/45/43 41/43/41 
f 44/46/44 40/42/40 94/131/94 95/132/95 
f 95/132/95 17/133/17 16/47/16 44/46/44 
f 48/51/48 91/134/91 90/135/90 49/52/49 
f 89/136/89 52/55/52 49/52/49 90/135/90 
f 46/49/46 49/52/49 52/55/52 51/54/51 
f 53/56/53 52/55/52 89/136/89 88/137/88 
f 96/138/96 53/56/53 88/137/88 87/139/87 
f 96/138/96 97/140/97 50/53/50 53/56/53 
f 50/53/50 57/141/57 56/97/56 51/54/51 
f 57/141/57 50/53/50 97/140/97 98/142/98 
f 57/141/57 98/142/98 93/143/93 54/144/54 
f 60/63/60 2/2/2 1/1/1 61/64/61 
f 61/64/61 1/1/1 32/34/32 64/145/64 
f 64/67/64 63/66/63 58/146/58 61/147/61 
f 65/148/65 64/145/64 32/34/32 31/33/31 
f 48/149/48 65/148/65 31/33/31 91/124/91 
f 48/150/48 47/94/47 62/65/62 65/68/65 
f 62/65/62 67/71/67 66/70/66 63/66/63 
f 12/12/12 67/71/67 62/65/62 47/94/47 
f 11/11/11 37/72/37 67/71/67 12/12/12 
f 20/22/20 26/115/26 69/74/69 21/23/21 
f 25/27/25 73/151/73 69/152/69 26/28/26 
f 72/77/72 70/109/70 69/153/69 73/78/73 
f 73/151/73 25/27/25 3/3/3 74/154/74 
f 3/3/3 2/2/2 60/63/60 74/154/74 
f 59/100/59 71/76/71 74/79/74 60/155/60 
f 76/83/76 75/82/75 72/77/72 71/76/71 
f 59/100/59 14/16/14 76/83/76 71/76/71 
f 6/80/6 76/83/76 14/16/14 7/15/7 
f 78/85/78 18/20/18 17/19/17 95/156/95 
f 94/157/94 81/88/81 78/85/78 95/156/95 
f 77/84/77 78/85/78 81/88/81 80/87/80 
f 92/129/92 82/158/82 81/159/81 94/131/94 
f 98/142/98 82/160/82 92/161/92 93/143/93 
f 82/160/82 98/142/98 97/140/97 79/162/79 
f 86/93/86 85/92/85 80/87/80 79/86/79 
f 86/93/86 79/86/79 97/163/97 96/164/96 
f 87/165/87 83/90/83 86/93/86 96/164/96 
# 96 polygons

