# Blender v2.80 (sub 75) OBJ File: ''
# www.blender.org
mtllib rock-2.mtl
o Plane
v -6.083834 -0.000001 6.083834
v 6.083834 -0.000001 6.083834
v 6.083834 0.000001 -6.083834
v -6.083834 0.000001 -6.083834
vt 0.137636 0.563411
vt 0.137636 0.563411
vt 0.137636 0.563411
vt 0.137636 0.563411
vn 0.0000 1.0000 0.0000
usemtl Material.001
s off
f 1/1/1 2/2/1 3/3/1 4/4/1
o Cube.001
v -0.159364 -0.070482 0.170676
v -0.135861 -0.018061 0.332629
v -0.265747 -0.020117 0.275039
v -0.291926 -0.067841 0.132394
v -0.171236 0.414088 0.201178
v -0.297154 0.398993 0.186252
v -0.257585 0.365895 0.318678
v -0.154152 0.357487 0.382623
v 0.281872 0.332556 0.282661
v 0.204208 0.419291 0.259930
v 0.112151 0.321601 0.436201
v 0.236505 0.210997 0.411038
v -0.238573 0.231575 0.401197
v -0.323716 0.275287 0.350984
v -0.434313 0.285412 -0.201637
v -0.342517 0.387721 -0.206557
v -0.172231 0.367611 -0.426909
v -0.246155 0.288392 -0.412464
v -0.189707 0.046419 -0.323589
v -0.081197 -0.018780 -0.202291
v -0.174903 -0.035594 -0.240842
v -0.268572 0.023207 -0.292643
v -0.090853 -0.068410 -0.171950
v -0.120289 -0.085341 -0.010774
v -0.276493 -0.079105 -0.034133
v -0.217824 -0.068263 -0.154765
v 0.138434 -0.088477 -0.189491
v 0.121350 -0.097197 -0.032001
v -0.003988 -0.097381 -0.017358
v 0.043646 -0.058693 -0.153426
v 0.096856 -0.092848 0.153631
v 0.061527 -0.044058 0.343202
v -0.039041 -0.035657 0.354127
v -0.026844 -0.085437 0.171724
v 0.086583 0.426913 0.248869
v -0.050015 0.423641 0.181768
v -0.087105 0.358867 0.498492
v -0.016489 0.343467 0.517522
v 0.202467 0.415212 -0.206504
v 0.015913 0.397459 -0.286507
v 0.011646 0.420896 -0.073111
v 0.154459 0.421138 -0.083787
v -0.137454 0.401739 -0.256279
v -0.297321 0.405848 0.002823
v -0.152398 0.418410 -0.003249
v 0.340407 0.059095 0.215193
v 0.320147 0.196418 0.290553
v 0.291809 0.148868 0.398098
v 0.256274 0.057142 0.378320
v 0.334376 0.039668 -0.246670
v 0.320058 0.186913 -0.198742
v 0.296839 0.215644 0.048706
v 0.320511 0.075079 -0.018408
v 0.359572 0.279402 -0.203729
v 0.311179 0.378949 -0.171294
v 0.246384 0.388195 0.013801
v 0.265449 0.332746 0.056912
v -0.178504 0.059367 0.388114
v -0.263595 0.125477 0.371591
v -0.416283 0.140762 0.245957
v -0.396904 0.034342 0.222076
v 0.124848 0.047782 0.403247
v 0.168485 0.137001 0.417432
v 0.065693 0.140958 0.393449
v -0.034130 0.048791 0.433665
v 0.132405 0.215314 0.406416
v -0.016891 0.203060 0.461665
v -0.340096 -0.024507 -0.232846
v -0.444532 0.099532 -0.208794
v -0.299502 0.149964 -0.326629
v -0.391610 0.010436 0.140512
v -0.415884 0.144064 0.132266
v -0.416490 0.133851 -0.018450
v -0.391121 -0.047896 -0.073646
v -0.362294 0.316739 0.215181
v -0.374604 0.332751 0.013062
v -0.066481 0.285498 -0.494681
v -0.195873 0.154947 -0.404125
v 0.202586 0.264801 -0.440455
v 0.140520 0.139908 -0.431211
v -0.050473 0.104890 -0.442714
v 0.038703 0.261354 -0.527949
v 0.129506 0.035717 -0.345309
v 0.118452 -0.044488 -0.295870
v 0.016990 -0.022644 -0.225768
v -0.045596 0.018979 -0.355543
v 0.226555 -0.036342 -0.310639
v 0.263204 -0.059322 -0.183798
v 0.264059 -0.049078 -0.042644
v 0.254829 -0.039381 0.135503
v 0.185985 -0.023678 0.307383
v 0.329314 0.337496 -0.294929
v 0.194609 0.349466 -0.374504
v 0.026587 0.350907 -0.456730
v -0.044201 0.357245 -0.518997
v 0.273118 0.054533 -0.371004
v 0.303199 0.167617 -0.352023
v 0.350045 0.251490 -0.340535
vt 0.137636 0.563411
vt 0.058285 0.569867
vt 0.082613 0.506661
vt 0.152906 0.498683
vt 0.155028 0.344089
vt 0.206316 0.378186
vt 0.155630 0.402329
vt 0.099783 0.387655
vt 0.896175 0.282885
vt 0.854473 0.349296
vt 0.794976 0.248970
vt 0.870663 0.174892
vt 0.949240 0.587705
vt 0.944083 0.694636
vt 0.905653 0.682602
vt 0.916733 0.604517
vt 0.336809 0.082005
vt 0.369246 0.000842
vt 0.489191 0.000000
vt 0.460672 0.063535
vt 0.485748 0.254952
vt 0.512673 0.310590
vt 0.481603 0.323059
vt 0.447322 0.276247
vt 0.276846 0.583529
vt 0.215363 0.578539
vt 0.223692 0.502410
vt 0.270084 0.523882
vt 0.288525 0.695621
vt 0.226456 0.694739
vt 0.220811 0.635843
vt 0.266533 0.646047
vt 0.149628 0.688747
vt 0.060049 0.668982
vt 0.053708 0.620010
vt 0.140662 0.629249
vt 0.046020 0.277128
vt 0.115533 0.299946
vt 0.042023 0.402498
vt 0.011393 0.383384
vt 0.133867 0.094672
vt 0.226136 0.127633
vt 0.165692 0.199396
vt 0.116225 0.149680
vt 0.273683 0.187557
vt 0.335575 0.267841
vt 0.258354 0.321530
vt 0.206193 0.274302
vt 0.422948 0.654063
vt 0.520455 0.684734
vt 0.477461 0.726331
vt 0.404599 0.713241
vt 0.422729 0.459207
vt 0.529375 0.479105
vt 0.539575 0.580737
vt 0.439840 0.553878
vt 0.744126 0.814485
vt 0.672331 0.787452
vt 0.683844 0.711964
vt 0.731678 0.707183
vt 0.016271 0.536299
vt 0.006598 0.482318
vt 0.054401 0.402498
vt 0.090851 0.431859
vt 0.857058 0.070133
vt 0.855242 0.125920
vt 0.818683 0.137473
vt 0.786060 0.070157
vt 0.829103 0.182611
vt 0.720806 0.251159
vt 0.693981 0.268226
vt 0.758736 0.168010
vt 0.408067 0.318081
vt 0.348488 0.225548
vt 0.431026 0.176751
vt 0.834672 0.401576
vt 0.821728 0.494375
vt 0.758928 0.488146
vt 0.747834 0.361119
vt 0.853441 0.628842
vt 0.844101 0.700647
vt 0.766741 0.707183
vt 0.766456 0.640000
vt 0.554998 0.057463
vt 0.491069 0.166304
vt 0.661203 0.071636
vt 0.642437 0.169965
vt 0.565426 0.199969
vt 0.608937 0.072162
vt 0.628288 0.255903
vt 0.619708 0.321108
vt 0.560004 0.310321
vt 0.556413 0.271543
vt 0.934356 0.187628
vt 0.907061 0.133559
vt 0.622627 0.581780
vt 0.617335 0.678426
vt 0.662917 0.562066
vt 0.672331 0.661064
vt 0.939564 0.506329
vt 0.869574 0.490922
vt 0.791582 0.866218
vt 0.744126 0.821215
vt 0.752056 0.707183
vt 0.791426 0.711743
vt 1.000000 0.606532
vt 0.999879 0.706758
vt 0.672331 0.596657
vt 0.677773 0.459778
vt 0.674914 0.687648
vt 0.387737 0.801509
vt 0.336809 0.833560
vt 0.336920 0.785916
vt 0.384519 0.726331
vt 0.506205 0.350977
vt 0.448079 0.354288
vt 0.559475 0.342029
vt 0.609960 0.361119
vt 0.324683 0.722893
vt 0.278588 0.749240
vt 0.320949 0.673747
vt 0.218381 0.752553
vt 0.143231 0.752483
vt 0.069266 0.722735
vt 0.808347 0.361119
vt 0.056221 0.145884
vt 0.000000 0.241327
vt 0.085645 0.065345
vt 0.116277 0.014773
vt 0.187902 0.035191
vt 0.273048 0.064123
vt 0.316518 0.068429
vt 0.336809 0.140426
vt 0.340137 0.610197
vt 0.336809 0.674909
vt 0.339988 0.536299
vt 0.336833 0.476818
vt 0.353162 0.419686
vt 0.429528 0.400325
vt 0.517650 0.412671
vt 0.604166 0.482239
vt 0.586459 0.423461
vt 0.646477 0.441109
vt 0.670954 0.491413
vt 0.000000 0.608449
vt 0.694133 0.143704
vt 0.736508 0.092307
vt 0.012308 0.682984
vt 0.019832 0.742597
vt 0.913859 0.076969
vt 0.232244 0.440506
vt 0.291247 0.454530
vt 0.685316 0.388716
vt 0.130148 0.436240
vt 0.867108 0.417288
vt 0.563922 0.000091
vt 0.582099 0.007382
vt 0.207942 0.000000
vt 0.293309 0.025246
vt 0.579472 0.365264
vt 0.639569 0.392860
vt 0.477201 0.361119
vt 0.693981 0.150197
vt 0.693822 0.237100
vt 0.668575 0.311882
vn -0.1105 -0.9738 0.1985
vn -0.2584 -0.7975 0.5451
vn -0.3495 -0.7771 0.5234
vn -0.3025 -0.9320 0.1995
vn -0.1167 0.9821 0.1479
vn -0.4539 0.8731 0.1776
vn -0.3958 0.7604 0.5149
vn -0.3528 0.7087 0.6109
vn 0.8228 0.4808 0.3029
vn 0.5033 0.8215 0.2681
vn 0.3845 0.4345 0.8145
vn 0.4538 0.2397 0.8582
vn -0.4358 -0.0821 0.8963
vn -0.6895 0.3023 0.6582
vn -0.9092 0.3233 -0.2622
vn -0.5019 0.8357 -0.2231
vn -0.3963 0.7012 -0.5927
vn -0.6149 0.1247 -0.7787
vn -0.1987 -0.6792 -0.7065
vn -0.0110 -0.8574 -0.5145
vn 0.0883 -0.7838 -0.6147
vn -0.2636 -0.5910 -0.7624
vn 0.0321 -0.9199 -0.3907
vn -0.0475 -0.9983 -0.0340
vn -0.2091 -0.9777 -0.0180
vn -0.0642 -0.9511 -0.3019
vn -0.0232 -0.9791 -0.2021
vn 0.1005 -0.9946 -0.0248
vn -0.0629 -0.9956 -0.0687
vn -0.1654 -0.9365 -0.3092
vn 0.1415 -0.9784 0.1504
vn 0.1254 -0.8472 0.5163
vn -0.0976 -0.8321 0.5459
vn -0.0829 -0.9830 0.1638
vn 0.1050 0.9760 0.1904
vn -0.0601 0.9943 0.0878
vn -0.2427 0.5402 0.8058
vn 0.1621 0.3715 0.9142
vn 0.1853 0.9695 -0.1606
vn 0.0408 0.9814 -0.1877
vn -0.0243 0.9982 -0.0548
vn 0.1117 0.9936 -0.0183
vn -0.0414 0.9904 -0.1314
vn -0.4111 0.9113 0.0190
vn -0.0645 0.9975 -0.0296
vn 0.9333 -0.3313 0.1386
vn 0.9580 0.1638 0.2352
vn 0.6806 -0.0183 0.7324
vn 0.5461 -0.4967 0.6746
vn 0.9359 -0.3048 -0.1767
vn 0.9952 -0.0939 0.0256
vn 0.9904 0.1335 0.0350
vn 0.9841 -0.1765 0.0184
vn 0.9931 0.0820 0.0832
vn 0.6699 0.7423 0.0131
vn 0.5967 0.7969 0.0939
vn 0.9330 0.3501 0.0836
vn -0.3337 -0.2076 0.9195
vn -0.4701 -0.2717 0.8397
vn -0.9063 -0.0483 0.4199
vn -0.7737 -0.5055 0.3818
vn 0.1494 -0.3836 0.9113
vn 0.1111 -0.1076 0.9879
vn 0.0174 -0.0965 0.9951
vn -0.1012 -0.2054 0.9734
vn 0.1805 -0.2088 0.9611
vn -0.0900 -0.3713 0.9241
vn -0.5067 -0.7035 -0.4983
vn -0.9166 -0.1914 -0.3510
vn -0.5649 -0.2337 -0.7914
vn -0.8178 -0.5584 0.1392
vn -0.9967 0.0571 0.0568
vn -0.9971 -0.0322 0.0682
vn -0.7092 -0.7039 -0.0376
vn -0.8455 0.4951 0.2002
vn -0.8702 0.4851 0.0857
vn -0.2999 -0.0439 -0.9529
vn -0.4142 -0.3815 -0.8264
vn 0.4670 0.1523 -0.8710
vn 0.2746 -0.4396 -0.8552
vn -0.1191 -0.5338 -0.8371
vn 0.1746 -0.0036 -0.9846
vn 0.0273 -0.6129 -0.7896
vn -0.1095 -0.8472 -0.5198
vn -0.1808 -0.8741 -0.4509
vn -0.1362 -0.8069 -0.5747
vn 0.2782 -0.7664 -0.5790
vn 0.5681 -0.8159 -0.1077
vn 0.6285 -0.7766 0.0433
vn 0.5813 -0.8049 0.1192
vn 0.3782 -0.8253 0.4193
vn 0.6776 0.6467 -0.3501
vn 0.3209 0.7821 -0.5341
vn 0.2015 0.8034 -0.5603
vn -0.0692 0.6273 -0.7756
vn 0.5395 -0.4075 -0.7368
vn 0.7572 -0.2571 -0.6005
vn 0.8760 0.0159 -0.4820
usemtl Material.002
s 1
f 5/5/2 6/6/3 7/7/4 8/8/5
f 9/9/6 10/10/7 11/11/8 12/12/9
f 13/13/10 14/14/11 15/15/12 16/16/13
f 17/17/14 12/18/9 11/19/8 18/20/15
f 19/21/16 20/22/17 21/23/18 22/24/19
f 23/25/20 24/26/21 25/27/22 26/28/23
f 27/29/24 28/30/25 29/31/26 30/32/27
f 31/33/28 32/34/29 33/35/30 34/36/31
f 35/37/32 36/38/33 37/39/34 38/40/35
f 39/41/36 40/42/37 41/43/38 42/44/39
f 43/45/40 44/46/41 45/47/42 46/48/43
f 47/49/44 20/50/17 48/51/45 49/52/46
f 50/53/47 51/54/48 52/55/49 53/56/50
f 54/57/51 55/58/52 56/59/53 57/60/54
f 58/61/55 59/62/56 60/63/57 61/64/58
f 62/65/59 63/66/60 64/67/61 65/68/62
f 66/69/63 67/70/64 68/71/65 69/72/66
f 70/73/67 42/74/39 41/75/38 71/76/68
f 72/77/69 73/78/70 74/79/71 26/28/23
f 75/80/72 76/81/73 77/82/74 78/83/75
f 79/84/76 10/85/7 48/86/45 80/87/77
f 81/88/78 82/89/79 74/79/71 22/24/19
f 83/90/80 84/91/81 85/92/82 86/93/83
f 87/94/84 88/95/85 89/96/86 90/97/87
f 28/30/25 5/5/2 8/8/5 29/31/26
f 33/35/30 38/40/35 5/5/2 28/30/25
f 38/40/35 37/39/34 6/6/3 5/5/2
f 40/42/37 9/9/6 12/12/9 41/43/38
f 45/47/42 49/52/46 9/9/6 40/42/37
f 49/52/46 48/51/45 10/10/7 9/9/6
f 51/98/48 13/13/10 16/16/13 52/99/49
f 56/59/53 61/100/58 13/101/10 51/54/48
f 61/100/58 60/102/57 14/103/11 13/101/10
f 63/104/60 17/17/14 18/20/15 64/105/61
f 68/106/65 71/107/68 17/108/14 63/109/60
f 71/110/68 41/111/38 12/18/9 17/17/14
f 73/78/70 19/21/16 22/24/19 74/79/71
f 77/82/74 80/87/77 19/112/16 73/113/70
f 80/87/77 48/86/45 20/114/17 19/112/16
f 82/89/79 23/25/20 26/28/23 74/79/71
f 85/92/82 90/97/87 23/25/20 82/89/79
f 90/115/87 89/116/86 24/117/21 23/118/20
f 24/26/21 27/119/24 30/120/27 25/27/22
f 89/96/86 34/121/31 27/119/24 24/26/21
f 34/36/31 33/35/30 28/30/25 27/29/24
f 88/95/85 31/122/28 34/121/31 89/96/86
f 91/123/88 92/124/89 31/33/28 88/125/85
f 92/124/89 93/126/90 32/34/29 31/33/28
f 32/34/29 35/37/32 38/40/35 33/35/30
f 93/126/90 94/127/91 35/37/32 32/34/29
f 94/127/91 95/128/92 36/38/33 35/37/32
f 14/14/11 39/129/36 42/74/39 15/15/12
f 60/130/57 46/48/43 39/41/36 14/131/11
f 46/48/43 45/47/42 40/42/37 39/41/36
f 59/132/56 43/45/40 46/48/43 60/130/57
f 96/133/93 97/134/94 43/45/40 59/132/56
f 97/134/94 98/135/95 44/46/41 43/45/40
f 44/46/41 47/49/44 49/52/46 45/47/42
f 98/135/95 99/136/96 47/49/44 44/46/41
f 99/136/96 21/137/18 20/50/17 47/49/44
f 94/138/91 50/53/47 53/56/50 95/139/92
f 93/140/90 57/60/54 50/53/47 94/138/91
f 57/60/54 56/59/53 51/54/48 50/53/47
f 92/141/89 54/57/51 57/60/54 93/140/90
f 91/142/88 100/143/97 54/57/51 92/141/89
f 100/143/97 101/144/98 55/58/52 54/57/51
f 55/58/52 58/145/55 61/100/58 56/59/53
f 101/144/98 102/146/99 58/145/55 55/58/52
f 102/146/99 96/147/93 59/148/56 58/145/55
f 6/6/3 62/65/59 65/68/62 7/7/4
f 37/39/34 69/149/66 62/65/59 6/6/3
f 69/72/66 68/71/65 63/150/60 62/151/59
f 36/38/33 66/152/63 69/149/66 37/39/34
f 95/128/92 53/153/50 66/152/63 36/38/33
f 53/154/50 52/99/49 67/70/64 66/69/63
f 67/70/64 70/73/67 71/76/68 68/71/65
f 52/99/49 16/16/13 70/73/67 67/70/64
f 16/16/13 15/15/12 42/74/39 70/73/67
f 30/120/27 72/77/69 26/28/23 25/27/22
f 29/31/26 78/155/75 72/156/69 30/32/27
f 78/83/75 77/82/74 73/113/70 72/157/69
f 8/8/5 75/158/72 78/155/75 29/31/26
f 7/7/4 65/68/62 75/158/72 8/8/5
f 65/159/62 64/105/61 76/81/73 75/80/72
f 76/81/73 79/84/76 80/87/77 77/82/74
f 64/105/61 18/20/15 79/84/76 76/81/73
f 18/20/15 11/19/8 10/85/7 79/84/76
f 99/160/96 81/88/78 22/24/19 21/23/18
f 98/161/95 86/93/83 81/88/78 99/160/96
f 86/93/83 85/92/82 82/89/79 81/88/78
f 97/134/94 83/162/80 86/163/83 98/135/95
f 96/147/93 102/146/99 83/164/80 97/165/94
f 102/146/99 101/144/98 84/166/81 83/164/80
f 84/91/81 87/94/84 90/97/87 85/92/82
f 101/167/98 100/168/97 87/94/84 84/91/81
f 100/168/97 91/169/88 88/95/85 87/94/84
