<?xml version="1.0" encoding="utf-8"?>
<!-- Generator: Adobe Illustrator 23.0.2, SVG Export Plug-In . SVG Version: 6.00 Build 0)  -->
<svg version="1.1"
	 id="svg3001" xmlns:cc="http://creativecommons.org/ns#" xmlns:dc="http://purl.org/dc/elements/1.1/" xmlns:inkscape="http://www.inkscape.org/namespaces/inkscape" xmlns:rdf="http://www.w3.org/1999/02/22-rdf-syntax-ns#" xmlns:sodipodi="http://sodipodi.sourceforge.net/DTD/sodipodi-0.dtd" xmlns:svg="http://www.w3.org/2000/svg"
	 xmlns="http://www.w3.org/2000/svg" xmlns:xlink="http://www.w3.org/1999/xlink" x="0px" y="0px" viewBox="0 0 200 200"
	 style="enable-background:new 0 0 200 200;" xml:space="preserve">
<style type="text/css">
	.st0{fill:#FFFFFF;}
</style>
<sodipodi:namedview  bordercolor="#666666" borderopacity="1" gridtolerance="10" guidetolerance="10" id="namedview3007" inkscape:current-layer="svg3001" inkscape:cx="896" inkscape:cy="896" inkscape:pageopacity="0" inkscape:pageshadow="2" inkscape:window-height="480" inkscape:window-maximized="0" inkscape:window-width="640" inkscape:window-x="0" inkscape:window-y="25" inkscape:zoom="0.13169643" objecttolerance="10" pagecolor="#ffffff" showgrid="false">
	</sodipodi:namedview>
<g id="g3003" transform="matrix(1,0,0,-1,98.711864,1224.678)">
	<path id="path3005" inkscape:connector-curvature="0" class="st0" d="M83.7,1130.9v-14.3c0-3.9-1.2-7.3-3.6-10.1
		c-2.4-2.8-5.6-4.2-9.4-4.2H-7.9l32.7-32.8c2.8-2.7,4.2-6,4.2-10c0-4-1.4-7.4-4.2-10l-8.4-8.5c-2.8-2.8-6.1-4.1-10-4.1
		c-3.9,0-7.3,1.4-10.2,4.1l-72.7,72.8c-2.8,2.8-4.1,6.1-4.1,10c0,3.9,1.4,7.3,4.1,10.2l72.7,72.5c2.8,2.8,6.2,4.2,10.2,4.2
		c3.9,0,7.2-1.4,10-4.2l8.4-8.3c2.8-2.8,4.2-6.2,4.2-10.2c0-3.9-1.4-7.3-4.2-10.2l-32.7-32.7h78.6c3.9,0,7-1.4,9.4-4.2
		C82.5,1138.2,83.7,1134.8,83.7,1130.9z"/>
</g>
</svg>
